<svg width="625" height="321" viewBox="0 0 625 321" fill="none" xmlns="http://www.w3.org/2000/svg">
<g clip-path="url(#clip0_246_2)">
<path d="M15 3H611C614.183 3 617.235 4.26428 619.485 6.51472C621.736 8.76516 623 11.8174 623 15V253C623 256.183 621.736 259.235 619.485 261.485C617.235 263.736 614.183 265 611 265H244.51L178.87 315.45V265H15C11.8174 265 8.76515 263.736 6.51471 261.485C4.26427 259.235 3 256.183 3 253V15C3 11.8174 4.26427 8.76516 6.51471 6.51472C8.76515 4.26428 11.8174 3 15 3Z" stroke="white" stroke-width="5" stroke-miterlimit="10"/>
</g>
<defs>
<clipPath id="clip0_246_2">
<rect width="625" height="320.03" fill="white"/>
</clipPath>
</defs>
</svg>
